<?xml version="1.0" encoding="UTF-8"?>
<svg width="228px" height="234px" viewBox="0 0 228 234" version="1.1" xmlns="http://www.w3.org/2000/svg" xmlns:xlink="http://www.w3.org/1999/xlink">
    <!-- Generator: Sketch 43.2 (39069) - http://www.bohemiancoding.com/sketch -->
    <title>Untitled</title>
    <desc>Created with Sketch.</desc>
    <defs></defs>
    <g id="Page-1" stroke="none" stroke-width="1" fill="none" fill-rule="evenodd">
        <g id="clock" fill-rule="nonzero" fill="#FFFFFF">
            <path d="M106.5,6.4 L100.6,6.4 L100.6,4.3 C101.4,4.3 102.1,4.2 102.8,4.1 C103.5,4 104.2,3.8 104.8,3.4 C105.4,3.1 105.9,2.6 106.3,2.1 C106.7,1.5 107,0.8 107.1,0 L109.2,0 L109.2,22.7 L106.5,22.7 L106.5,6.4 Z M115.1,4.8 C115.4,3.8 115.9,3 116.5,2.3 C117.1,1.6 117.9,1 118.9,0.6 C119.8,0.2 120.9,0 122.1,0 C123.1,0 124,0.1 124.9,0.4 C125.8,0.7 126.5,1.1 127.2,1.6 C127.8,2.1 128.3,2.8 128.7,3.6 C129.1,4.4 129.3,5.3 129.3,6.4 C129.3,7.4 129.1,8.3 128.8,9.1 C128.5,9.9 128.1,10.6 127.6,11.2 C127.1,11.8 126.5,12.4 125.8,12.8 C125.1,13.3 124.5,13.8 123.8,14.2 C123.1,14.6 122.4,15 121.7,15.5 C121,16 120.4,16.4 119.8,16.8 C119.2,17.3 118.7,17.8 118.3,18.3 C117.9,18.8 117.6,19.5 117.5,20.2 L129.1,20.2 L129.1,22.6 L114.3,22.6 C114.4,21.3 114.6,20.1 115,19.2 C115.4,18.3 115.8,17.4 116.4,16.7 C117,16 117.6,15.4 118.4,14.8 C119.1,14.3 119.9,13.8 120.7,13.3 C121.7,12.7 122.5,12.2 123.2,11.7 C123.9,11.2 124.5,10.7 125,10.2 C125.5,9.7 125.8,9.1 126.1,8.5 C126.4,7.9 126.5,7.2 126.5,6.4 C126.5,5.8 126.4,5.2 126.1,4.7 C125.9,4.2 125.6,3.8 125.2,3.4 C124.8,3 124.3,2.8 123.8,2.6 C123.3,2.4 122.7,2.3 122.1,2.3 C121.3,2.3 120.6,2.5 120.1,2.8 C119.5,3.1 119.1,3.6 118.7,4.1 C118.3,4.6 118.1,5.2 117.9,5.9 C117.7,6.6 117.7,7.2 117.7,7.9 L115,7.9 C114.7,6.9 114.8,5.8 115.1,4.8 Z M167.5,38.2 L167.5,21.9 L161.6,21.9 L161.6,19.7 C162.4,19.7 163.1,19.6 163.8,19.5 C164.5,19.4 165.2,19.2 165.8,18.8 C166.4,18.5 166.9,18 167.3,17.5 C167.7,16.9 168,16.2 168.1,15.4 L170.2,15.4 L170.2,38.1 L167.5,38.1 L167.5,38.2 Z M199.9,59.2 C200.2,58.2 200.7,57.4 201.3,56.7 C201.9,56 202.7,55.4 203.7,55 C204.6,54.6 205.7,54.4 206.9,54.4 C207.9,54.4 208.8,54.5 209.7,54.8 C210.6,55.1 211.3,55.5 212,56 C212.6,56.5 213.1,57.2 213.5,58 C213.9,58.8 214.1,59.7 214.1,60.8 C214.1,61.8 213.9,62.7 213.6,63.5 C213.3,64.3 212.9,65 212.4,65.6 C211.9,66.2 211.3,66.8 210.6,67.2 C209.9,67.7 209.3,68.2 208.6,68.6 C207.9,69 207.2,69.4 206.5,69.9 C205.8,70.4 205.2,70.8 204.6,71.2 C204,71.7 203.5,72.2 203.1,72.7 C202.7,73.2 202.4,73.9 202.3,74.6 L213.9,74.6 L213.9,77 L199,77 C199.1,75.7 199.3,74.5 199.7,73.6 C200.1,72.7 200.5,71.8 201.1,71.1 C201.7,70.4 202.3,69.8 203.1,69.2 C203.8,68.7 204.6,68.2 205.4,67.7 C206.4,67.1 207.2,66.6 207.9,66.1 C208.6,65.6 209.2,65.1 209.7,64.6 C210.2,64.1 210.5,63.5 210.8,62.9 C211.1,62.3 211.2,61.6 211.2,60.8 C211.2,60.2 211.1,59.6 210.8,59.1 C210.6,58.6 210.3,58.2 209.9,57.8 C209.5,57.4 209,57.2 208.5,57 C208,56.8 207.4,56.7 206.8,56.7 C206,56.7 205.3,56.9 204.8,57.2 C204.2,57.5 203.8,58 203.4,58.5 C203,59 202.8,59.6 202.6,60.3 C202.4,61 202.4,61.6 202.4,62.3 L199.7,62.3 C199.5,61.2 199.6,60.2 199.9,59.2 L199.9,59.2 Z M218.6,115.1 L219.5,115.1 C220.1,115.1 220.6,115 221.1,114.9 C221.6,114.8 222.1,114.5 222.5,114.2 C222.9,113.9 223.2,113.5 223.4,113 C223.6,112.5 223.8,112 223.8,111.4 C223.8,110.2 223.4,109.3 222.6,108.7 C221.8,108.1 220.9,107.8 219.7,107.8 C219,107.8 218.3,107.9 217.8,108.2 C217.3,108.5 216.8,108.8 216.5,109.3 C216.1,109.7 215.9,110.3 215.7,110.9 C215.5,111.5 215.4,112.1 215.4,112.8 L212.7,112.8 C212.7,111.7 212.9,110.7 213.2,109.8 C213.5,108.9 214,108.1 214.5,107.5 C215.1,106.9 215.8,106.4 216.7,106 C217.6,105.6 218.6,105.5 219.7,105.5 C220.7,105.5 221.6,105.6 222.4,105.9 C223.2,106.2 224,106.5 224.6,107 C225.2,107.5 225.7,108.1 226.1,108.9 C226.5,109.7 226.6,110.6 226.6,111.6 C226.6,112.6 226.3,113.5 225.7,114.3 C225.1,115.1 224.4,115.7 223.5,116.1 L223.5,116.2 C224.9,116.5 225.9,117.2 226.6,118.2 C227.3,119.2 227.6,120.4 227.6,121.8 C227.6,122.9 227.4,123.9 227,124.8 C226.6,125.7 226,126.4 225.3,127 C224.6,127.6 223.8,128 222.8,128.3 C221.8,128.6 220.8,128.7 219.8,128.7 C218.6,128.7 217.6,128.5 216.7,128.2 C215.8,127.9 215,127.4 214.3,126.8 C213.6,126.2 213.1,125.4 212.8,124.5 C212.4,123.6 212.3,122.5 212.3,121.4 L215,121.4 C215,122.9 215.5,124.1 216.3,125 C217.1,125.9 218.3,126.4 219.9,126.4 C220.6,126.4 221.2,126.3 221.8,126.1 C222.4,125.9 222.9,125.6 223.4,125.2 C223.9,124.8 224.2,124.4 224.5,123.8 C224.8,123.2 224.9,122.6 224.9,122 C224.9,121.3 224.8,120.7 224.5,120.1 C224.2,119.5 223.9,119.1 223.5,118.7 C223.1,118.3 222.6,118 222,117.9 C221.4,117.8 220.8,117.6 220.1,117.6 C219.5,117.6 219,117.6 218.5,117.7 L218.5,115 C218.4,115.1 218.5,115.1 218.6,115.1 L218.6,115.1 Z M215.2,173.8 L215.2,176.2 L212.1,176.2 L212.1,181.5 L209.5,181.5 L209.5,176.2 L199.5,176.2 L199.5,173.6 L209.8,158.8 L212,158.8 L212,173.8 L215.2,173.8 Z M209.6,162.7 L202,173.8 L209.6,173.8 L209.6,162.7 Z M164.7,199.4 L163.5,205.9 L163.6,206 C164.1,205.4 164.7,205 165.5,204.8 C166.3,204.5 167.1,204.4 167.8,204.4 C168.8,204.4 169.8,204.6 170.6,204.9 C171.5,205.2 172.3,205.7 172.9,206.4 C173.6,207.1 174.1,207.9 174.5,208.8 C174.9,209.7 175.1,210.9 175.1,212.2 C175.1,213.2 174.9,214.1 174.6,215 C174.3,215.9 173.8,216.7 173.1,217.4 C172.4,218.1 171.6,218.7 170.6,219.1 C169.6,219.5 168.5,219.7 167.1,219.7 C166.1,219.7 165.2,219.6 164.3,219.3 C163.4,219 162.7,218.6 162,218.1 C161.3,217.6 160.8,216.9 160.4,216.1 C160,215.3 159.8,214.4 159.8,213.3 L162.5,213.3 C162.5,213.9 162.7,214.4 162.9,214.9 C163.1,215.4 163.5,215.8 163.9,216.2 C164.3,216.6 164.8,216.9 165.4,217.1 C166,217.3 166.6,217.4 167.3,217.4 C167.9,217.4 168.6,217.3 169.1,217.1 C169.7,216.9 170.2,216.5 170.6,216.1 C171,215.7 171.4,215.1 171.6,214.4 C171.9,213.7 172,212.9 172,212 C172,211.3 171.9,210.6 171.6,209.9 C171.3,209.2 171,208.7 170.6,208.3 C170.2,207.9 169.6,207.5 169,207.2 C168.4,206.9 167.7,206.8 166.9,206.8 C166,206.8 165.2,207 164.5,207.4 C163.8,207.8 163.2,208.3 162.7,209 L160.4,208.9 L162.5,197.1 L173.7,197.1 L173.7,199.5 L164.7,199.5 L164.7,199.4 Z M117.4,214.1 C116.7,213.5 115.9,213.2 114.8,213.2 C113.6,213.2 112.7,213.5 112,214 C111.3,214.5 110.7,215.3 110.4,216.1 C110.1,216.9 109.7,217.9 109.6,218.9 C109.5,219.9 109.4,220.8 109.3,221.7 L109.4,221.8 C110,220.8 110.8,220 111.8,219.5 C112.7,219 113.8,218.8 115.1,218.8 C116.2,218.8 117.2,219 118,219.4 C118.9,219.8 119.6,220.3 120.2,221 C120.8,221.7 121.2,222.4 121.6,223.3 C121.9,224.2 122.1,225.2 122.1,226.2 C122.1,227 122,227.9 121.7,228.8 C121.4,229.7 121,230.5 120.4,231.2 C119.8,231.9 119,232.5 118.1,233 C117.1,233.5 115.9,233.7 114.5,233.7 C112.8,233.7 111.5,233.4 110.4,232.7 C109.3,232 108.6,231.1 108,230.1 C107.4,229 107.1,227.9 106.9,226.6 C106.7,225.3 106.6,224.1 106.6,222.9 C106.6,221.3 106.7,219.8 107,218.4 C107.3,216.9 107.7,215.6 108.4,214.5 C109,213.4 109.9,212.5 111,211.8 C112.1,211.1 113.4,210.8 115,210.8 C116.9,210.8 118.4,211.3 119.5,212.3 C120.6,213.3 121.2,214.7 121.4,216.6 L118.7,216.6 C118.5,215.5 118.1,214.7 117.4,214.1 L117.4,214.1 Z M112.5,221.6 C111.9,221.9 111.4,222.2 111,222.7 C110.6,223.2 110.3,223.7 110.1,224.3 C109.9,224.9 109.8,225.6 109.8,226.3 C109.8,227 109.9,227.7 110.1,228.3 C110.3,228.9 110.6,229.5 111,229.9 C111.4,230.3 111.9,230.7 112.5,231 C113.1,231.3 113.8,231.4 114.5,231.4 C115.2,231.4 115.9,231.3 116.5,231 C117.1,230.7 117.5,230.4 117.9,229.9 C118.3,229.4 118.6,228.9 118.8,228.3 C119,227.7 119.1,227.1 119.1,226.4 C119.1,225.7 119,225 118.8,224.4 C118.6,223.8 118.3,223.2 118,222.8 C117.6,222.3 117.1,222 116.6,221.7 C116.1,221.4 115.4,221.3 114.6,221.3 C113.7,221.2 113.1,221.4 112.5,221.6 L112.5,221.6 Z M65.9,203.4 C64.9,205 64,206.6 63.2,208.4 C62.4,210.2 61.8,212 61.3,213.9 C60.8,215.8 60.5,217.6 60.4,219.4 L57.4,219.4 C57.5,217.5 57.8,215.6 58.3,213.8 C58.8,212 59.4,210.2 60.2,208.6 C61,207 61.9,205.3 62.9,203.8 C63.9,202.3 65,200.9 66.2,199.7 L54.5,199.7 L54.5,197 L69.2,197 L69.2,199.3 C68,200.5 66.9,201.8 65.9,203.4 Z M16.2,162.1 C16.6,161.4 17.1,160.8 17.7,160.3 C18.3,159.8 19,159.4 19.8,159.2 C20.6,158.9 21.4,158.8 22.3,158.8 C23.5,158.8 24.6,159 25.5,159.3 C26.4,159.6 27.1,160.1 27.6,160.6 C28.1,161.1 28.5,161.8 28.8,162.5 C29.1,163.2 29.2,163.9 29.2,164.6 C29.2,165.6 28.9,166.6 28.4,167.4 C27.9,168.2 27.1,168.9 26.1,169.3 C27.5,169.7 28.5,170.4 29.1,171.4 C29.7,172.4 30.1,173.6 30.1,175 C30.1,176.1 29.9,177.1 29.5,177.9 C29.1,178.8 28.6,179.5 27.9,180.1 C27.2,180.7 26.4,181.1 25.5,181.4 C24.6,181.7 23.6,181.8 22.6,181.8 C21.5,181.8 20.5,181.7 19.6,181.4 C18.7,181.1 17.8,180.7 17.2,180.1 C16.6,179.5 16,178.8 15.6,177.9 C15.2,177 15,176 15,174.9 C15,173.6 15.3,172.4 16,171.4 C16.7,170.4 17.7,169.7 18.9,169.2 C17.9,168.8 17.2,168.2 16.6,167.3 C16,166.4 15.7,165.5 15.7,164.5 C15.6,163.6 15.8,162.8 16.2,162.1 Z M19.1,178.3 C20,179.1 21.2,179.5 22.6,179.5 C23.3,179.5 23.9,179.4 24.5,179.2 C25.1,179 25.6,178.7 26,178.3 C26.4,177.9 26.7,177.4 27,176.9 C27.3,176.4 27.3,175.8 27.3,175.1 C27.3,174.5 27.2,173.9 26.9,173.4 C26.6,172.9 26.3,172.4 25.9,172 C25.5,171.6 25,171.3 24.4,171.1 C23.8,170.9 23.2,170.8 22.6,170.8 C21.9,170.8 21.3,170.9 20.7,171.1 C20.1,171.3 19.6,171.6 19.2,172 C18.8,172.4 18.4,172.8 18.2,173.4 C18,173.9 17.8,174.5 17.8,175.2 C17.7,176.4 18.1,177.5 19.1,178.3 L19.1,178.3 Z M18.8,166.3 C19,166.8 19.3,167.1 19.7,167.4 C20.1,167.7 20.5,167.9 21,168.1 C21.5,168.2 22,168.3 22.6,168.3 C23.7,168.3 24.6,168 25.3,167.3 C26,166.7 26.4,165.8 26.4,164.6 C26.4,163.4 26,162.6 25.3,162 C24.6,161.4 23.7,161.1 22.6,161.1 C22.1,161.1 21.6,161.2 21.1,161.3 C20.6,161.4 20.2,161.7 19.8,162 C19.4,162.3 19.2,162.7 19,163.1 C18.8,163.5 18.7,164 18.7,164.6 C18.5,165.3 18.6,165.8 18.8,166.3 L18.8,166.3 Z M5.5,125.1 C6.3,125.7 7.2,126 8.3,126 C10,126 11.2,125.3 12,123.8 C12.8,122.3 13.3,120.2 13.4,117.2 L13.3,117.1 C12.8,118.1 12.1,118.8 11.1,119.4 C10.2,120 9.1,120.2 8,120.2 C6.8,120.2 5.8,120 4.9,119.6 C4,119.2 3.3,118.7 2.6,118 C2,117.3 1.5,116.5 1.2,115.6 C0.9,114.7 0.7,113.6 0.7,112.5 C0.7,111.4 0.9,110.4 1.2,109.5 C1.6,108.6 2.1,107.8 2.7,107.2 C3.4,106.5 4.2,106 5.1,105.7 C6,105.3 7,105.2 8.1,105.2 C9.2,105.2 10.2,105.4 11.1,105.7 C12,106 12.9,106.6 13.6,107.4 C14.3,108.2 14.9,109.3 15.3,110.7 C15.7,112.1 15.9,113.9 15.9,116 C15.9,119.9 15.3,122.9 14,125 C12.8,127.1 10.8,128.2 8,128.2 C6.1,128.2 4.5,127.7 3.3,126.8 C2.1,125.9 1.3,124.4 1.2,122.4 L3.9,122.4 C4.3,123.6 4.8,124.5 5.5,125.1 L5.5,125.1 Z M12.7,110.9 C12.5,110.3 12.2,109.7 11.8,109.3 C11.4,108.9 10.9,108.4 10.3,108.2 C9.7,107.9 9.1,107.8 8.3,107.8 C7.5,107.8 6.8,107.9 6.2,108.2 C5.6,108.5 5.2,108.9 4.8,109.4 C4.4,109.9 4.2,110.5 4,111.1 C3.8,111.7 3.8,112.4 3.8,113.1 C3.8,113.7 3.9,114.3 4.1,114.9 C4.3,115.5 4.6,116 5,116.4 C5.4,116.8 5.9,117.2 6.4,117.5 C6.9,117.8 7.5,117.9 8.2,117.9 C8.9,117.9 9.5,117.8 10.1,117.5 C10.7,117.2 11.2,116.9 11.6,116.4 C12,115.9 12.3,115.4 12.5,114.8 C12.7,114.2 12.8,113.6 12.8,112.9 C13,112.2 12.9,111.5 12.7,110.9 L12.7,110.9 Z M14.6,76 L14.6,59.8 L8.8,59.8 L8.8,57.6 C9.6,57.6 10.3,57.5 11,57.4 C11.7,57.3 12.4,57.1 13,56.7 C13.6,56.4 14.1,55.9 14.5,55.4 C14.9,54.8 15.2,54.1 15.3,53.3 L17.4,53.3 L17.4,76 L14.6,76 Z M22.9,62.3 C22.9,61.4 23,60.5 23.2,59.7 C23.4,58.8 23.6,58 23.9,57.3 C24.2,56.5 24.7,55.9 25.2,55.3 C25.8,54.7 26.5,54.3 27.3,53.9 C28.1,53.5 29.2,53.4 30.3,53.4 C31.5,53.4 32.5,53.6 33.3,53.9 C34.1,54.2 34.8,54.7 35.4,55.3 C36,55.9 36.4,56.5 36.7,57.3 C37,58.1 37.3,58.9 37.4,59.7 C37.6,60.6 37.7,61.4 37.7,62.3 C37.7,63.2 37.8,64.1 37.8,64.9 C37.8,65.7 37.8,66.6 37.7,67.5 C37.6,68.4 37.6,69.3 37.4,70.1 C37.2,71 37,71.8 36.7,72.5 C36.4,73.2 35.9,73.9 35.4,74.5 C34.8,75.1 34.2,75.5 33.3,75.9 C32.4,76.3 31.5,76.4 30.3,76.4 C29.1,76.4 28.1,76.2 27.3,75.9 C26.5,75.6 25.8,75.1 25.2,74.5 C24.6,73.9 24.2,73.3 23.9,72.5 C23.6,71.7 23.3,70.9 23.2,70.1 C23,69.2 22.9,68.4 22.9,67.5 C22.9,66.6 22.8,65.7 22.8,64.9 C22.9,64.1 22.9,63.2 22.9,62.3 L22.9,62.3 Z M25.8,67.7 C25.9,68.8 26,69.7 26.3,70.7 C26.6,71.6 27.1,72.4 27.7,73.1 C28.3,73.8 29.2,74.1 30.4,74.1 C31.6,74.1 32.4,73.8 33.1,73.1 C33.8,72.4 34.2,71.7 34.5,70.7 C34.8,69.8 35,68.8 35,67.7 C35.1,66.6 35.1,65.7 35.1,64.8 L35.1,63 C35.1,62.3 35,61.7 34.9,61 C34.8,60.3 34.7,59.7 34.5,59 C34.3,58.4 34.1,57.8 33.7,57.3 C33.3,56.8 32.9,56.4 32.4,56.1 C31.9,55.8 31.2,55.7 30.4,55.7 C29.6,55.7 29,55.8 28.4,56.1 C27.9,56.4 27.4,56.8 27.1,57.3 C26.7,57.8 26.5,58.3 26.3,59 C26.1,59.6 26,60.3 25.9,61 C25.8,61.7 25.8,62.3 25.7,63 L25.7,64.8 C25.8,65.7 25.8,66.7 25.8,67.7 Z" id="Shape"></path>
            <path d="M54.5,38.2 L54.5,21.9 L48.6,21.9 L48.6,19.7 C49.4,19.7 50.1,19.6 50.8,19.5 C51.5,19.4 52.2,19.2 52.8,18.8 C53.4,18.5 53.9,18 54.3,17.5 C54.7,16.9 55,16.2 55.1,15.4 L57.2,15.4 L57.2,38.1 L54.5,38.1 L54.5,38.2 Z M70.1,38.2 L70.1,21.9 L64.2,21.9 L64.2,19.7 C65,19.7 65.7,19.6 66.4,19.5 C67.1,19.4 67.8,19.2 68.4,18.8 C69,18.5 69.5,18 69.9,17.5 C70.3,16.9 70.6,16.2 70.7,15.4 L72.8,15.4 L72.8,38.1 L70.1,38.1 L70.1,38.2 Z" id="Shape"></path>
        </g>
    </g>
</svg>